#!OML:ASF H:\MichaelJackson\Top Level 1\Subject 1\Session 1\male.ASF
:FULLY-SPECIFIED
:DEGREES
986
root 9.31053 16.9323 31.9676 -190.85 -195.789 -183.776
lowerback 16.0443 -0.780084 -2.31988
upperback 4.34235 -1.21525 2.80278
thorax -4.24967 -0.577077 4.51936
lowerneck -7.2131 -2.542 2.1553
upperneck 0.158735 -3.54232 -0.94084
head 1.20306 -1.78177 -0.765247
rclavicle -3.75206e-015 6.95746e-015
rhumerus -47.3816 -1.21829 -55.7428
rradius 71.8393
rwrist -1.62364
rhand -6.01682 -32.5508
rfingers 7.12502
rthumb 19.8162 -421.561
lclavicle -3.75206e-015 6.95746e-015
lhumerus -56.9936 -32.1999 106.63
lradius 72.6633
lwrist 13.312
lhand 2.74847 21.6155
lfingers 7.12502
lthumb 28.2202 49.5107
rfemur -74.9822 -20.1467 25.2864
rtibia 42.556
rfoot -2.48323 15.0126
rtoes -39.1329
lfemur -7.31257 7.97104 -18.5014
ltibia 35.6811
lfoot -15.9598 -4.70935
ltoes 26.6388
987
root 9.28784 16.8909 31.9907 -191.058 -195.437 -182.616
lowerback 16.7559 -0.681461 -3.38576
upperback 4.5849 -1.29881 2.31743
thorax -4.34926 -0.614341 4.64416
lowerneck -7.39554 -2.36995 2.23023
upperneck -0.16883 -3.32461 -0.871663
head 1.13378 -1.67354 -0.748627
rclavicle -2.69602e-014 -6.75868e-015
rhumerus -47.3973 -2.85847 -56.13
rradius 72.5218
rwrist -8.12601
rhand -5.7786 -34.4237
rfingers 7.12502
rthumb 20.0452 -423.41
lclavicle -2.69602e-014 -6.75868e-015
lhumerus -57.0904 -32.9338 106.519
lradius 72.9145
lwrist 13.2597
lhand 2.12585 20.9577
lfingers 7.12502
lthumb 27.6249 48.9496
rfemur -79.8894 -21.6462 31.2637
rtibia 48.6193
rfoot -1.97945 14.2747
rtoes -39.0547
lfemur -6.69915 8.57735 -19.5613
ltibia 35.8338
lfoot -16.3464 -4.0295
ltoes 25.364
988
root 9.2636 16.848 32.0149 -191.264 -195.333 -181.415
lowerback 17.4304 -0.631375 -4.48409
upperback 4.81568 -1.46735 1.80606
thorax -4.42635 -0.693742 4.77548
lowerneck -7.52857 -2.22539 2.27714
upperneck -0.506044 -3.13986 -0.806761
head 1.05271 -1.5821 -0.728621
rclavicle 3.15571e-014 -9.24349e-015
rhumerus -47.3999 -4.60747 -56.5539
rradius 73.071
rwrist -14.2677
rhand -5.72719 -35.7777
rfingers 7.12502
rthumb 20.0946 -424.759
lclavicle 3.15571e-014 -9.24349e-015
lhumerus -57.1786 -33.6738 106.418
lradius 73.1361
lwrist 13.5071
lhand 1.66868 20.5483
lfingers 7.12502
lthumb 27.1877 48.6095
rfemur -83.8962 -22.2097 35.3048
rtibia 55.0301
rfoot -0.607849 12.2616
rtoes -37.3854
lfemur -6.06993 9.17652 -20.6632
ltibia 35.9271
lfoot -16.7393 -3.5673
ltoes 24.1295
989
root 9.23873 16.804 32.0418 -191.443 -195.519 -180.207
lowerback 18.0444 -0.646819 -5.57685
upperback 5.02581 -1.73322 1.28613
thorax -4.47484 -0.821515 4.91279
lowerneck -7.58764 -2.11749 2.28966
upperneck -0.87688 -2.99895 -0.747898
head 0.947961 -1.51295 -0.704437
rclavicle 4.58758e-014 -1.98785e-015
rhumerus -47.4384 -6.40963 -57.0062
rradius 73.5126
rwrist -19.8494
rhand -5.75189 -36.6463
rfingers 7.12502
rthumb 20.0709 -425.63
lclavicle 4.58758e-014 -1.98785e-015
lhumerus -57.2578 -34.4302 106.354
lradius 73.319
lwrist 13.985
lhand 1.45195 20.4129
lfingers 7.12502
lthumb 26.9803 48.5063
rfemur -87.1585 -22.3144 37.7814
rtibia 61.521
rfoot 1.51957 10.0192
rtoes -34.6194
lfemur -5.46467 9.7826 -21.7568
ltibia 35.9931
lfoot -17.1481 -3.4328
ltoes 23.0109
990
root 9.21278 16.7618 32.0698 -191.564 -195.961 -179.183
lowerback 18.5563 -0.744419 -6.48397
upperback 5.19103 -2.07692 0.820647
thorax -4.50477 -0.987895 5.01641
lowerneck -7.56125 -2.05694 2.24393
upperneck -1.28071 -2.91409 -0.670563
head 0.818467 -1.47162 -0.664785
rclavicle -5.07212e-015 -1.75427e-014
rhumerus -47.5621 -8.19327 -57.4907
rradius 73.8913
rwrist -24.7718
rhand -6.0023 -37.0997
rfingers 7.12502
rthumb 19.8301 -426.108
lclavicle -5.07212e-015 -1.75427e-014
lhumerus -57.3148 -35.2259 106.361
lradius 73.4316
lwrist 14.6132
lhand 1.53574 20.551
lfingers 7.12502
lthumb 27.0605 48.632
rfemur -89.8903 -22.2051 39.2603
rtibia 67.8874
rfoot 4.27448 8.3995
rtoes -31.632
lfemur -4.99425 10.4144 -22.6247
ltibia 36.0835
lfoot -17.5671 -3.70281
ltoes 22.0667
991
root 9.18561 16.7238 32.0982 -191.603 -196.643 -178.415
lowerback 18.9412 -0.930631 -7.14005
upperback 5.30523 -2.48562 0.437901
thorax -4.51555 -1.18654 5.07644
lowerneck -7.48146 -2.0495 2.14027
upperneck -1.69852 -2.89381 -0.569976
head 0.676041 -1.46207 -0.609356
rclavicle 3.56446e-014 -4.12478e-015
rhumerus -47.794 -9.90096 -58.0194
rradius 74.253
rwrist -28.9288
rhand -6.73635 -37.3546
rfingers 7.12502
rthumb 19.1244 -426.434
lclavicle 3.56446e-014 -4.12478e-015
lhumerus -57.3323 -36.0788 106.46
lradius 73.4451
lwrist 15.2847
lhand 1.90479 20.8948
lfingers 7.12502
lthumb 27.4135 48.9205
rfemur -92.2434 -22.06 40.109
rtibia 73.9907
rfoot 7.45412 8.06883
rtoes -29.6014
lfemur -4.73081 11.0492 -23.1935
ltibia 36.2548
lfoot -17.9974 -4.39084
ltoes 21.3799
992
root 9.15696 16.6927 32.1254 -191.539 -197.516 -177.982
lowerback 19.1703 -1.20116 -7.47175
upperback 5.35633 -2.93109 0.166519
thorax -4.51563 -1.40327 5.07533
lowerneck -7.38113 -2.10079 1.97323
upperneck -2.08738 -2.94623 -0.436703
head 0.540192 -1.48785 -0.535566
rclavicle -6.75619e-014 6.65929e-015
rhumerus -48.1556 -11.4758 -58.6095
rradius 74.6396
rwrist -32.201
rhand -8.12115 -37.3253
rfingers 7.12502
rthumb 17.7923 -426.531
lclavicle -6.75619e-014 6.65929e-015
lhumerus -57.2918 -37.0059 106.67
lradius 73.321
lwrist 15.9125
lhand 2.51193 21.3264
lfingers 7.12502
lthumb 27.9941 49.2587
rfemur -94.2767 -21.9302 40.6003
rtibia 79.73
rfoot 10.8298 9.45246
rtoes -28.8801
lfemur -4.74952 11.657 -23.4005
ltibia 36.5515
lfoot -18.4355 -5.44715
ltoes 20.9601
993
root 9.12695 16.6684 32.1513 -191.371 -198.526 -177.902
lowerback 19.2244 -1.54141 -7.46298
upperback 5.33978 -3.38598 0.016228
thorax -4.50947 -1.62469 5.00743
lowerneck -7.28359 -2.20813 1.75007
upperneck -2.4133 -3.06906 -0.270025
head 0.425761 -1.54762 -0.445067
rclavicle -2.37672e-014 -4.37326e-015
rhumerus -48.6413 -12.8618 -59.2907
rradius 75.0665
rwrist -34.4124
rhand -10.419 -37.1377
rfingers 7.12502
rthumb 15.5801 -426.53
lclavicle -2.37672e-014 -4.37326e-015
lhumerus -57.1823 -38.0128 106.994
lradius 73.0402
lwrist 16.4437
lhand 3.30156 21.751
lfingers 7.12502
lthumb 28.7487 49.5577
rfemur -96.0161 -21.8324 40.9246
rtibia 85.0545
rfoot 14.1292 12.585
rtoes -28.8069
lfemur -5.08085 12.2006 -23.2542
ltibia 36.9844
lfoot -18.8675 -6.7691
ltoes 20.8217
994
root 9.09604 16.6489 32.1761 -191.105 -199.618 -178.138
lowerback 19.1038 -1.92495 -7.14803
upperback 5.25629 -3.82266 -0.0207183
thorax -4.50298 -1.83733 4.87692
lowerneck -7.21013 -2.36735 1.47897
upperneck -2.64552 -3.25799 -0.0733325
head 0.346087 -1.63916 -0.340861
rclavicle 9.93923e-017 1.53064e-014
rhumerus -49.2254 -14.0274 -60.0837
rradius 75.5271
rwrist -35.3326
rhand -13.6788 -36.9222
rfingers 7.12502
rthumb 12.4388 -426.532
lclavicle 9.93923e-017 1.53064e-014
lhumerus -57 -39.0822 107.426
lradius 72.6005
lwrist 16.8562
lhand 4.23172 22.0939
lfingers 7.12502
lthumb 29.6369 49.7463
rfemur -97.4637 -21.7503 41.2037
rtibia 89.9621
rfoot 17.2017 17.0401
rtoes -28.9421
lfemur -5.70514 12.6621 -22.8228
ltibia 37.5272
lfoot -19.2894 -8.2208
ltoes 20.8677
995
root 9.06442 16.6332 32.1992 -190.766 -200.734 -178.615
lowerback 18.8407 -2.31644 -6.59937
upperback 5.11101 -4.21489 0.0335854
thorax -4.50955 -2.0281 4.69595
lowerneck -7.16628 -2.56802 1.18577
upperneck -2.78205 -3.50126 0.132837
head 0.302471 -1.757 -0.233387
rclavicle 3.61291e-014 -9.14409e-015
rhumerus -49.8662 -14.9455 -61.0154
rradius 75.9781
rwrist -34.7362
rhand -17.7753 -36.8965
rfingers 7.12502
rthumb 8.48723 -426.706
lclavicle 3.61291e-014 -9.14409e-015
lhumerus -56.749 -40.1792 107.947
lradius 72.0189
lwrist 17.1643
lhand 5.25771 22.2904
lfingers 7.12502
lthumb 30.6157 49.7644
rfemur -98.6026 -21.6593 41.5009
rtibia 94.4764
rfoot 20.2236 22.0917
rtoes -28.7964
lfemur -6.56239 13.035 -22.2051
ltibia 38.1262
lfoot -19.6924 -9.64603
ltoes 20.963
996
root 9.03238 16.6203 32.2204 -190.371 -201.841 -179.175
lowerback 18.4829 -2.6779 -5.96956
upperback 4.92113 -4.54979 0.133084
thorax -4.52878 -2.19081 4.50003
lowerneck -7.14246 -2.80059 0.884772
upperneck -2.84044 -3.78705 0.339059
head 0.287913 -1.8956 -0.127259
rclavicle -1.635e-014 -1.09332e-014
rhumerus -50.5205 -15.614 -62.1055
rradius 76.3716
rwrist -32.51
rhand -22.5017 -37.4208
rfingers 7.12502
rthumb 3.92429 -427.364
lclavicle -1.635e-014 -1.09332e-014
lhumerus -56.4403 -41.2466 108.526
lradius 71.3382
lwrist 17.4119
lhand 6.3509 22.337
lfingers 7.12502
lthumb 31.6576 49.611
rfemur -99.4225 -21.574 41.7725
rtibia 98.6513
rfoot 23.6698 26.85
rtoes -27.8579
lfemur -7.5379 13.3242 -21.5684
ltibia 38.7042
lfoot -20.0823 -10.899
ltoes 20.8954
